<svg width="94" height="68" viewBox="0 0 94 68" fill="none" xmlns="http://www.w3.org/2000/svg">
<path d="M15.1999 0.078125C7.00143 0.078125 0.359863 6.71969 0.359863 14.9181V53.0781C0.359863 61.2766 7.00143 67.9181 15.1999 67.9181H78.7999C86.9983 67.9181 93.6399 61.2766 93.6399 53.0781V14.9181C93.6399 6.71969 86.9983 0.078125 78.7999 0.078125H15.1999ZM15.1999 4.31812H78.7999C84.6464 4.31812 89.3999 9.07156 89.3999 14.9181V53.0781C89.3999 58.9247 84.6464 63.6781 78.7999 63.6781H15.1999C9.3533 63.6781 4.59986 58.9247 4.59986 53.0781V14.9181C4.59986 9.07156 9.3533 4.31812 15.1999 4.31812ZM37.0624 17.0381L21.5599 38.6356V42.4781H36.4661V50.9581H40.3749V42.4781H44.8799V38.9669H40.3749V17.0381H37.0624ZM60.7799 17.0381C50.2544 17.0381 49.7161 26.9922 49.7161 34.0644C49.7161 39.323 49.3517 50.9581 60.7799 50.9581C71.1231 50.9581 71.8436 40.7722 71.8436 34.0644C71.8436 26.9922 71.1231 17.0381 60.7799 17.0381ZM60.7799 20.6819C68.9452 20.6819 67.6699 33.1534 67.6699 34.0644C67.6699 41.1366 66.585 47.5131 60.7799 47.5131C52.9789 47.5131 53.8899 35.3397 53.8899 34.0644C53.8899 33.3356 52.6145 20.6819 60.7799 20.6819ZM36.6649 23.3981V38.7681H25.7999L36.6649 23.3981Z" fill="#1E367D"/>
</svg>
