<svg width="80" height="80" viewBox="0 0 80 80" fill="none" xmlns="http://www.w3.org/2000/svg">
<path d="M24.4124 0.420103C24.1144 0.436569 23.8259 0.530284 23.575 0.69204C23.3242 0.853796 23.1198 1.07803 22.9819 1.3427C22.844 1.60737 22.7773 1.90337 22.7884 2.20161C22.7995 2.49986 22.888 2.79009 23.0452 3.04377C23.0452 3.04377 28.8609 12.4803 41.7199 12.4803C41.9479 12.4835 42.1741 12.4414 42.3857 12.3564C42.5972 12.2714 42.7897 12.1452 42.952 11.9852C43.1143 11.8251 43.2432 11.6344 43.3312 11.4242C43.4191 11.2139 43.4644 10.9882 43.4644 10.7603C43.4644 10.5323 43.4191 10.3066 43.3312 10.0964C43.2432 9.88608 43.1143 9.69538 42.952 9.53534C42.7897 9.37531 42.5972 9.24913 42.3857 9.16413C42.1741 9.07914 41.9479 9.03704 41.7199 9.04026C30.499 9.04026 25.9947 1.27674 25.9947 1.27674C25.8502 1.02711 25.6453 0.817826 25.3987 0.668133C25.1521 0.51844 24.8719 0.433149 24.5838 0.420103C24.5267 0.417257 24.4695 0.417257 24.4124 0.420103ZM39.9999 0.440259C39.772 0.437036 39.5457 0.479144 39.3342 0.564135C39.1227 0.649127 38.9302 0.775307 38.7679 0.935344C38.6056 1.09538 38.4767 1.28608 38.3887 1.49636C38.3007 1.70665 38.2554 1.93232 38.2554 2.16026C38.2554 2.3882 38.3007 2.61387 38.3887 2.82415C38.4767 3.03444 38.6056 3.22514 38.7679 3.38517C38.9302 3.54521 39.1227 3.67139 39.3342 3.75638C39.5457 3.84137 39.772 3.88348 39.9999 3.88026C46.0199 3.88026 50.8238 8.53635 50.8238 8.53635L51.7006 9.41315L52.8092 8.85885C52.8092 8.85885 56.0533 7.32026 58.9199 7.32026C63.3155 7.32026 66.3038 10.2564 66.3038 10.2564C66.4623 10.4214 66.6522 10.5532 66.8622 10.644C67.0723 10.7348 67.2984 10.7828 67.5272 10.7851C67.756 10.7874 67.983 10.7441 68.1949 10.6576C68.4067 10.5711 68.5992 10.4432 68.761 10.2814C68.9228 10.1195 69.0508 9.92706 69.1372 9.7152C69.2237 9.50333 69.2671 9.27634 69.2648 9.04751C69.2624 8.81868 69.2145 8.59261 69.1237 8.38255C69.0329 8.17249 68.9011 7.98266 68.736 7.82417C68.736 7.82417 64.8444 3.88026 58.9199 3.88026C55.7839 3.88026 53.4056 4.85747 52.2852 5.3651C51.0831 4.2483 46.7309 0.440259 39.9999 0.440259ZM62.4708 14.2003L60.7508 40.0003H60.6399H52.0399V20.358L27.9599 28.9614V20.358L0.439941 30.1875V79.5603H79.5599V40.0003H76.0091L74.2891 14.2003H62.4708ZM65.6891 17.6403H71.0708L72.7908 43.4403H76.1199V76.1203H3.87994V32.613L24.5199 25.2392V43.4403H27.9599V32.613L48.5999 25.2392V43.4403H50.3199H52.0399H60.6399H63.9691H69.2399V40.0003H64.1975L65.6891 17.6403ZM9.03994 38.2803V45.1603H12.4799V38.2803H9.03994ZM15.9199 38.2803V45.1603H19.3599V38.2803H15.9199ZM33.1199 38.2803V45.1603H36.5599V38.2803H33.1199ZM39.9999 38.2803V45.1603H43.4399V38.2803H39.9999ZM9.03994 50.3203V57.2003H12.4799V50.3203H9.03994ZM15.9199 50.3203V57.2003H19.3599V50.3203H15.9199ZM24.5199 50.3203V57.2003H27.9599V50.3203H24.5199ZM33.1199 50.3203V57.2003H36.5599V50.3203H33.1199ZM39.9999 50.3203V57.2003H43.4399V50.3203H39.9999ZM53.7599 50.3203V53.7603H60.6399V50.3203H53.7599ZM64.0799 50.3203V53.7603H70.9599V50.3203H64.0799ZM9.03994 62.3603V69.2403H12.4799V62.3603H9.03994ZM15.9199 62.3603V69.2403H19.3599V62.3603H15.9199ZM24.5199 62.3603V69.2403H27.9599V62.3603H24.5199ZM33.1199 62.3603V69.2403H36.5599V62.3603H33.1199ZM39.9999 62.3603V69.2403H43.4399V62.3603H39.9999Z" fill="#1E367D"/>
</svg>
