<svg width="76" height="76" viewBox="0 0 76 76" fill="none" xmlns="http://www.w3.org/2000/svg">
<path d="M0.160156 0.160156V1.88016V13.9202H5.32016V62.0802H0.160156V75.8402H13.9202V74.1202V70.6802H62.0802V75.8402H75.8402V74.1202V62.0802H70.6802V13.9202H75.8402V12.2002V0.160156H62.0802V5.32016H13.9202V0.160156H0.160156ZM3.60016 3.60016H10.4802V10.4802H3.60016V3.60016ZM65.5202 3.60016H72.4002V10.4802H68.9602H65.5202V7.04016V3.60016ZM13.9202 8.76016H62.0802V13.9202H67.2402V62.0802H62.0802V67.2402H13.9202V62.0802H8.76016V13.9202H13.9202V8.76016ZM17.3602 17.3602V19.0802V44.8802H31.1202V58.6402H58.6402V31.1202H44.8802V17.3602H17.3602ZM20.8002 20.8002H41.4402V41.4402H20.8002V20.8002ZM44.8802 34.5602H55.2002V55.2002H34.5602V44.8802H44.8802V34.5602ZM3.60016 65.5202H7.04016H10.4802V68.9602V72.4002H3.60016V65.5202ZM65.5202 65.5202H68.9602H72.4002V72.4002H65.5202V68.9602V65.5202Z" fill="#1E367D"/>
</svg>
