<svg width="72" height="72" viewBox="0 0 72 72" fill="none" xmlns="http://www.w3.org/2000/svg">
<path d="M14.7149 0C13.5112 0 12.4874 0.579375 11.7449 1.395L11.6999 1.35L11.6549 1.395C11.6549 1.41188 11.6549 1.42312 11.6549 1.44C11.6268 1.45125 11.5931 1.46812 11.5649 1.485C11.5312 1.53 11.4412 1.65375 11.3399 1.8C11.3231 1.8225 11.3118 1.81688 11.2949 1.845C10.9631 2.31188 10.7268 2.86875 10.6199 3.51C10.6199 3.52688 10.6199 3.53812 10.6199 3.555L-7.08401e-05 70.335C-0.123821 71.1281 0.421805 71.8763 1.21493 72C2.00805 72.1237 2.75618 71.5781 2.87993 70.785L13.4549 4.005C13.4831 3.83062 13.5562 3.67875 13.6799 3.51C13.6968 3.48188 13.7137 3.44812 13.7249 3.42C13.7137 3.43688 13.7531 3.39188 13.7699 3.375C13.7868 3.35812 13.7981 3.34688 13.8149 3.33C14.0512 3.06 14.3493 2.88 14.7149 2.88H57.2849C57.7293 2.88 58.1006 3.09938 58.3199 3.465C58.3199 3.49312 58.3199 3.52688 58.3199 3.555C58.3143 3.54375 58.3649 3.555 58.3649 3.555C58.3762 3.58312 58.3593 3.5775 58.3649 3.6C58.3762 3.61688 58.3762 3.58312 58.4099 3.645C58.4099 3.66188 58.4099 3.67312 58.4099 3.69C58.4099 3.69562 58.4099 3.735 58.4099 3.735C58.4662 3.85312 58.5337 3.9375 58.5449 4.005L69.1199 70.785C69.2437 71.5781 69.9918 72.1237 70.7849 72C71.578 71.8763 72.1237 71.1281 71.9999 70.335L61.3799 3.555C61.3799 3.53812 61.3799 3.52688 61.3799 3.51C61.3181 3.13312 61.1887 2.835 61.0649 2.565C61.0031 2.4075 61.0087 2.44688 61.0199 2.475C61.0256 2.48625 60.9974 2.37938 61.0199 2.43C61.0087 2.40188 60.9918 2.36812 60.9749 2.34C60.9524 2.30062 60.8737 2.16 60.7949 2.025C60.778 1.99688 60.7668 1.96312 60.7499 1.935H60.7049C59.9793 0.804375 58.7305 0 57.2849 0H14.7149ZM21.3299 8.64C20.7168 8.7525 20.2499 9.24187 20.1599 9.855L11.5199 70.335C11.3962 71.1281 11.9418 71.8763 12.7349 72C13.5281 72.1237 14.2762 71.5781 14.3999 70.785L22.8599 11.52H28.6649V12.96C28.6649 15.3956 30.6843 17.415 33.1199 17.415H34.5599V37.845C33.6993 38.3456 33.1199 39.2569 33.1199 40.32C33.1199 41.5125 33.8399 42.5362 34.8749 42.975C35.4318 45.4781 36.6806 47.1094 37.7999 48.33C39.2793 49.9387 40.3199 50.7769 40.3199 53.28C40.3199 55.6819 38.4018 57.6 35.9999 57.6C33.5981 57.6 31.6799 55.6819 31.6799 53.28C31.6856 52.7625 31.4156 52.2787 30.9656 52.0144C30.5156 51.7556 29.9643 51.7556 29.5143 52.0144C29.0643 52.2787 28.7943 52.7625 28.7999 53.28C28.7999 57.24 32.0399 60.48 35.9999 60.48C39.9599 60.48 43.1999 57.24 43.1999 53.28C43.1999 49.8431 41.3605 47.9137 39.9599 46.395C38.9474 45.2925 38.0643 44.3644 37.6649 42.66C38.4018 42.1369 38.8799 41.2931 38.8799 40.32C38.8799 39.2569 38.3006 38.3456 37.4399 37.845V17.415H38.8799C41.3156 17.415 43.3349 15.3956 43.3349 12.96V11.52H49.1399L57.5999 70.785C57.7237 71.5781 58.4718 72.1237 59.2649 72C60.0581 71.8763 60.6037 71.1281 60.4799 70.335L51.8399 9.855C51.7274 9.14625 51.1143 8.62875 50.3999 8.64H21.5999C21.5549 8.64 21.5099 8.64 21.4649 8.64C21.4199 8.64 21.3749 8.64 21.3299 8.64ZM31.8149 11.52H40.1849V12.96C40.1849 13.6969 39.6168 14.265 38.8799 14.265H33.1199C32.3831 14.265 31.8149 13.6969 31.8149 12.96V11.52Z" fill="#1E367D"/>
</svg>
