<svg width="68" height="68" viewBox="0 0 68 68" fill="none" xmlns="http://www.w3.org/2000/svg">
<path d="M5.1999 0.398438C2.56795 0.398438 0.399902 2.56649 0.399902 5.19844V62.9953C0.399902 65.6273 2.56795 67.7953 5.1999 67.7953L44.1718 67.7984C53.6324 67.7984 61.0593 67.8016 61.0593 67.8016C61.3734 67.8015 61.6806 67.709 61.9426 67.5355C62.2045 67.362 62.4096 67.1152 62.5322 66.826C62.6548 66.5368 62.6896 66.2178 62.6322 65.9089C62.5747 65.6001 62.4277 65.3149 62.2093 65.0891L52.2749 54.8109C52.0601 54.5878 51.7851 54.4318 51.4833 54.3619C51.1815 54.292 50.866 54.3112 50.5749 54.4172C49.5749 54.7815 48.4629 54.9045 47.2718 54.7047C44.6691 54.2659 42.4984 52.0674 42.0843 49.4578C41.3838 45.0374 45.0222 41.391 49.4405 42.0797C52.0565 42.4875 54.2616 44.6602 54.703 47.2672C54.9048 48.4559 54.782 49.5741 54.4186 50.5797C54.3156 50.8657 54.2961 51.1751 54.3626 51.4717C54.429 51.7684 54.5785 52.0399 54.7936 52.2547C54.709 52.1701 54.9661 52.4334 55.2499 52.7266C55.5337 53.0197 55.9306 53.4287 56.403 53.9172C57.3479 54.8942 58.5936 56.1837 59.8343 57.4672C62.3156 60.0341 64.778 62.5797 64.778 62.5797C64.9995 62.8085 65.2841 62.966 65.5956 63.0322C65.9071 63.0983 66.2312 63.07 66.5265 62.9508C66.8218 62.8317 67.0748 62.6272 67.2533 62.3635C67.4317 62.0997 67.5273 61.7887 67.528 61.4703L67.5249 5.20156C67.5249 2.57043 65.3578 0.401563 62.7249 0.401563L41.928 0.398438C41.7172 0.398477 41.5084 0.440185 41.3137 0.521165C41.1191 0.602146 40.9423 0.720802 40.7937 0.870313L25.9905 15.7453C25.7759 15.9604 25.627 16.2321 25.5611 16.5288C25.4953 16.8254 25.5152 17.1346 25.6187 17.4203C25.9823 18.422 26.1039 19.5388 25.903 20.7297C25.4629 23.3339 23.2612 25.5039 20.6499 25.9141C16.2324 26.6093 12.5925 22.9735 13.2812 18.5578C13.6889 15.9437 15.8622 13.7367 18.4687 13.2953C19.6573 13.0935 20.7747 13.2167 21.778 13.5797C22.063 13.6829 22.3714 13.703 22.6674 13.6377C22.9634 13.5724 23.2348 13.4244 23.4499 13.2109C23.5958 13.0666 24.1421 12.5128 25.0874 11.5609C26.0327 10.6091 27.2777 9.35451 28.5187 8.10469C31.0005 5.60504 33.4624 3.12656 33.4624 3.12656C33.6852 2.90242 33.8366 2.61734 33.8975 2.30727C33.9585 1.9972 33.9263 1.67602 33.8049 1.38423C33.6836 1.09245 33.4786 0.843116 33.2158 0.66768C32.9529 0.492245 32.644 0.398559 32.328 0.398438H5.1999ZM5.1999 3.59844H28.4843C27.5957 4.49342 27.3693 4.72098 26.2468 5.85156C25.0059 7.10134 23.7607 8.35616 22.8155 9.30781C22.1442 9.98377 21.9143 10.2137 21.6655 10.4641C20.4635 10.1917 19.2446 9.9166 17.9343 10.1391C13.9263 10.8177 10.7445 14.051 10.1187 18.0641C9.1145 24.5028 14.7067 30.0901 21.1468 29.0766C25.1563 28.4467 28.3826 25.2648 29.0593 21.2609C29.2804 19.9503 29.0052 18.7305 28.7312 17.5266L42.5937 3.59844L62.7249 3.60156C63.628 3.60156 64.3249 4.2999 64.3249 5.20156L64.328 57.5109C63.4481 56.6005 63.2351 56.381 62.1343 55.2422C60.8935 53.9586 59.6483 52.6696 58.703 51.6922C58.2304 51.2035 57.8344 50.7923 57.5499 50.4984C57.5392 50.4874 57.5413 50.4901 57.5312 50.4797C57.8065 49.2729 58.0827 48.0487 57.8593 46.7328C57.1807 42.7254 53.9487 39.543 49.9343 38.9172C43.4918 37.913 37.9038 43.5142 38.9249 49.9578C39.5604 53.9626 42.7384 57.183 46.7405 57.8578C46.7405 57.8589 46.7405 57.8599 46.7405 57.8609C48.0409 58.0791 49.255 57.8032 50.453 57.5328L57.2905 64.6016C54.9244 64.6011 51.5214 64.5984 44.1718 64.5984L5.1999 64.5953C4.29585 64.5953 3.5999 63.8994 3.5999 62.9953V5.19844C3.5999 4.29439 4.29585 3.59844 5.1999 3.59844ZM48.3999 9.99844C43.1173 9.99844 38.7999 14.3158 38.7999 19.5984C38.7999 20.3514 39.012 21.0486 39.178 21.7578L21.7593 39.1766C21.0506 39.0098 20.3557 38.7984 19.5999 38.7984C14.3173 38.7984 9.9999 43.1158 9.9999 48.3984C9.9999 53.681 14.3173 57.9984 19.5999 57.9984C24.8825 57.9984 29.1999 53.681 29.1999 48.3984C29.1999 47.6437 28.9874 46.9492 28.8218 46.2422L46.2405 28.8234C46.9486 28.9885 47.6426 29.1984 48.3999 29.1984C53.6825 29.1984 57.9999 24.881 57.9999 19.5984C57.9999 14.3158 53.6825 9.99844 48.3999 9.99844ZM48.3999 13.1984C51.9525 13.1984 54.7999 16.0458 54.7999 19.5984C54.7999 23.151 51.9525 25.9984 48.3999 25.9984C47.6304 25.9984 46.8961 25.8651 46.2093 25.6203C45.9246 25.5192 45.617 25.5008 45.3223 25.5671C45.0275 25.6335 44.7576 25.7819 44.5437 25.9953L25.9937 44.5453C25.7785 44.7601 25.629 45.0316 25.5626 45.3283C25.4961 45.6249 25.5156 45.9343 25.6187 46.2203C25.8641 46.8992 25.9999 47.6289 25.9999 48.3984C25.9999 51.951 23.1525 54.7984 19.5999 54.7984C16.0473 54.7984 13.1999 51.951 13.1999 48.3984C13.1999 44.8458 16.0473 41.9984 19.5999 41.9984C20.3694 41.9984 21.1006 42.1335 21.778 42.3797C22.0637 42.4831 22.373 42.5031 22.6696 42.4372C22.9662 42.3714 23.2379 42.2224 23.453 42.0078L42.0061 23.4547C42.2213 23.2399 42.3708 22.9684 42.4372 22.6717C42.5037 22.3751 42.4842 22.0657 42.3811 21.7797C42.1343 21.0966 41.9999 20.3659 41.9999 19.5984C41.9999 16.0458 44.8473 13.1984 48.3999 13.1984ZM19.5999 16.3984C18.7512 16.3984 17.9373 16.7356 17.3372 17.3357C16.737 17.9358 16.3999 18.7497 16.3999 19.5984C16.3999 20.4471 16.737 21.2611 17.3372 21.8612C17.9373 22.4613 18.7512 22.7984 19.5999 22.7984C20.4486 22.7984 21.2625 22.4613 21.8626 21.8612C22.4628 21.2611 22.7999 20.4471 22.7999 19.5984C22.7999 18.7497 22.4628 17.9358 21.8626 17.3357C21.2625 16.7356 20.4486 16.3984 19.5999 16.3984ZM48.3999 16.3984C47.5512 16.3984 46.7373 16.7356 46.1372 17.3357C45.537 17.9358 45.1999 18.7497 45.1999 19.5984C45.1999 20.4471 45.537 21.2611 46.1372 21.8612C46.7373 22.4613 47.5512 22.7984 48.3999 22.7984C49.2486 22.7984 50.0625 22.4613 50.6626 21.8612C51.2628 21.2611 51.5999 20.4471 51.5999 19.5984C51.5999 18.7497 51.2628 17.9358 50.6626 17.3357C50.0625 16.7356 49.2486 16.3984 48.3999 16.3984ZM19.5999 45.1984C18.7512 45.1984 17.9373 45.5356 17.3372 46.1357C16.737 46.7358 16.3999 47.5497 16.3999 48.3984C16.3999 49.2471 16.737 50.0611 17.3372 50.6612C17.9373 51.2613 18.7512 51.5984 19.5999 51.5984C20.4486 51.5984 21.2625 51.2613 21.8626 50.6612C22.4628 50.0611 22.7999 49.2471 22.7999 48.3984C22.7999 47.5497 22.4628 46.7358 21.8626 46.1357C21.2625 45.5356 20.4486 45.1984 19.5999 45.1984ZM48.3999 45.1984C47.5512 45.1984 46.7373 45.5356 46.1372 46.1357C45.537 46.7358 45.1999 47.5497 45.1999 48.3984C45.1999 49.2471 45.537 50.0611 46.1372 50.6612C46.7373 51.2613 47.5512 51.5984 48.3999 51.5984C49.2486 51.5984 50.0625 51.2613 50.6626 50.6612C51.2628 50.0611 51.5999 49.2471 51.5999 48.3984C51.5999 47.5497 51.2628 46.7358 50.6626 46.1357C50.0625 45.5356 49.2486 45.1984 48.3999 45.1984Z" fill="#1E367D"/>
</svg>
