<svg width="74" height="69" viewBox="0 0 74 69" fill="none" xmlns="http://www.w3.org/2000/svg">
<path d="M5.175 0.199219C2.5286 0.199219 0.375 2.35282 0.375 4.99922V52.9992C0.375 55.6456 2.5286 57.7992 5.175 57.7992H48.375V54.5992H5.175C4.2934 54.5992 3.575 53.8808 3.575 52.9992V12.9992H64.375V23.1961C65.0342 23.5081 65.6652 23.8848 66.2188 24.368C66.6731 24.3584 67.1254 24.396 67.575 24.468V4.99922C67.575 2.35282 65.4214 0.199219 62.775 0.199219H5.175ZM6.775 4.99922C7.6582 4.99922 8.375 5.71602 8.375 6.59922C8.375 7.48242 7.6582 8.19922 6.775 8.19922C5.8918 8.19922 5.175 7.48242 5.175 6.59922C5.175 5.71602 5.8918 4.99922 6.775 4.99922ZM11.575 4.99922C12.4582 4.99922 13.175 5.71602 13.175 6.59922C13.175 7.48242 12.4582 8.19922 11.575 8.19922C10.6918 8.19922 9.975 7.48242 9.975 6.59922C9.975 5.71602 10.6918 4.99922 11.575 4.99922ZM16.375 4.99922C17.2582 4.99922 17.975 5.71602 17.975 6.59922C17.975 7.48242 17.2582 8.19922 16.375 8.19922C15.4918 8.19922 14.775 7.48242 14.775 6.59922C14.775 5.71602 15.4918 4.99922 16.375 4.99922ZM61.0187 25.6148C59.4076 25.6148 57.9232 26.4186 57.0656 27.6586C55.5856 27.2458 53.9067 27.6124 52.6188 28.718C51.382 29.7788 50.7688 31.3068 50.9 32.8492C49.5048 33.4572 48.4735 34.7812 48.0719 36.6148C47.8815 38.1332 48.4245 39.6914 49.4438 40.7586C48.7542 42.2386 48.7741 43.9299 49.5469 45.2867C50.3037 46.6067 51.6637 47.4853 53.1437 47.6773C53.507 49.2309 54.6192 50.5422 56.1344 51.1086C56.6512 51.3022 57.1844 51.3992 57.7156 51.3992C58.7188 51.3992 59.7196 51.0613 60.6156 50.4117C61.4796 51.0437 62.4347 51.3742 63.4188 51.3742C63.8396 51.3742 64.532 51.3731 65.1656 51.0867C66.7016 50.4867 67.7592 49.2357 68.1 47.6805C69.5176 47.4981 70.8538 46.6914 71.7594 45.4242C71.7914 45.381 71.8197 45.3362 71.8469 45.2898C72.5829 44.0018 72.6389 42.4045 72.0469 40.9773C73.4661 39.9869 74.1688 38.4431 73.9688 36.6367C73.9623 36.5791 73.9534 36.5256 73.9406 36.468C73.5726 34.8216 72.5729 33.571 71.1312 32.9086C71.2817 31.3454 70.67 29.79 69.4188 28.718C68.1756 27.6524 66.572 27.3173 64.9656 27.7461C64.06 26.4213 62.6108 25.6148 61.0187 25.6148ZM70.775 50.1992C70.6902 50.236 70.6099 50.2859 70.5219 50.3211C69.6627 51.9963 68.2289 53.3039 66.3969 54.0367C65.1633 54.5695 63.9868 54.5711 63.4156 54.5711C62.4604 54.5711 61.5163 54.3887 60.6188 54.0367C59.6892 54.4063 58.7092 54.5992 57.7188 54.5992H57.7156C56.7924 54.5992 55.883 54.4335 55.0094 54.1055C53.6398 53.5935 52.463 52.7175 51.575 51.6023V67.3992C51.575 67.9752 51.8851 68.5066 52.3875 68.7898C52.8883 69.0746 53.504 69.0687 54 68.7711L61.175 64.4648L68.3531 68.7711C68.6075 68.9247 68.8918 68.9992 69.175 68.9992C69.447 68.9992 69.7208 68.929 69.9656 68.7898C70.4664 68.5066 70.775 67.9752 70.775 67.3992V50.1992Z" fill="#1E367D"/>
</svg>
